<?xml version="1.0" encoding="iso-8859-1"?>
<!-- Generator: Adobe Illustrator 16.0.0, SVG Export Plug-In . SVG Version: 6.00 Build 0)  -->
<!DOCTYPE svg PUBLIC "-//W3C//DTD SVG 1.1//EN" "http://www.w3.org/Graphics/SVG/1.1/DTD/svg11.dtd">
<svg version="1.1" id="Capa_1" xmlns="http://www.w3.org/2000/svg" xmlns:xlink="http://www.w3.org/1999/xlink" x="0px" y="0px"
	 width="475.641px" height="475.641px" viewBox="0 0 475.641 475.641" style="enable-background:new 0 0 475.641 475.641;"
	 xml:space="preserve">
<g>
	<path fill = "#FFFFFF" d="M381.442,460.123l-40.903-164.452c-0.075-0.372-0.167-0.743-0.274-1.108L269.358,9.483C267.973,3.911,262.97,0,257.229,0
		h-38.817c-5.742,0-10.745,3.911-12.13,9.483L94.198,460.123c-0.928,3.732-0.086,7.686,2.282,10.715
		c2.369,3.031,6.001,4.803,9.848,4.803h57.045c3.316,0,6.496-1.316,8.84-3.662l65.544-65.564l65.67,65.564
		c2.345,2.346,5.523,3.662,8.84,3.662h57.044c3.847,0,7.479-1.771,9.848-4.803C381.528,467.809,382.37,463.855,381.442,460.123z
		 M228.182,25h19.274l25.464,102.381h-70.203L228.182,25z M158.193,450.641h-35.876l31.828-127.966l65.852,65.948L158.193,450.641z
		 M237.66,370.936l-76.471-76.586L196.5,152.38h82.638l35.248,141.715L237.66,370.936z M317.446,450.641l-62.059-62.078
		l66.043-66.143l31.891,128.221H317.446z"/>
</g>
<g>
</g>
<g>
</g>
<g>
</g>
<g>
</g>
<g>
</g>
<g>
</g>
<g>
</g>
<g>
</g>
<g>
</g>
<g>
</g>
<g>
</g>
<g>
</g>
<g>
</g>
<g>
</g>
<g>
</g>
</svg>
