<?xml version="1.0" encoding="UTF-8" standalone="no"?>
<svg
   xmlns:dc="http://purl.org/dc/elements/1.1/"
   xmlns:cc="http://creativecommons.org/ns#"
   xmlns:rdf="http://www.w3.org/1999/02/22-rdf-syntax-ns#"
   xmlns:svg="http://www.w3.org/2000/svg"
   xmlns="http://www.w3.org/2000/svg"
   xml:space="preserve"
   viewBox="0 0 287.98285 475.641"
   height="475.64099"
   width="287.98285"
   y="0px"
   x="0px"
   id="Capa_1"
   version="1.1"><metadata
   id="metadata41"><rdf:RDF><cc:Work
       rdf:about=""><dc:format>image/svg+xml</dc:format><dc:type
         rdf:resource="http://purl.org/dc/dcmitype/StillImage" /></cc:Work></rdf:RDF></metadata><defs
   id="defs39" />
<g
   transform="translate(-93.828572)"
   id="g4">
	<path
   id="path2"
   d="M 381.442,460.123 340.539,295.671 c -0.075,-0.372 -0.167,-0.743 -0.274,-1.108 L 269.358,9.483 C 267.973,3.911 262.97,0 257.229,0 h -38.817 c -5.742,0 -10.745,3.911 -12.13,9.483 L 94.198,460.123 c -0.928,3.732 -0.086,7.686 2.282,10.715 2.369,3.031 6.001,4.803 9.848,4.803 h 57.045 c 3.316,0 6.496,-1.316 8.84,-3.662 l 65.544,-65.564 65.67,65.564 c 2.345,2.346 5.523,3.662 8.84,3.662 h 57.044 c 3.847,0 7.479,-1.771 9.848,-4.803 2.369,-3.029 3.211,-6.983 2.283,-10.715 z M 228.182,25 h 19.274 l 25.464,102.381 h -70.203 z m -69.989,425.641 h -35.876 l 31.828,-127.966 65.852,65.948 z M 237.66,370.936 161.189,294.35 196.5,152.38 h 82.638 l 35.248,141.715 z m 79.786,79.705 -62.059,-62.078 66.043,-66.143 31.891,128.221 z" />
</g>
<g
   transform="translate(-93.828572)"
   id="g6">
</g>
<g
   transform="translate(-93.828572)"
   id="g8">
</g>
<g
   transform="translate(-93.828572)"
   id="g10">
</g>
<g
   transform="translate(-93.828572)"
   id="g12">
</g>
<g
   transform="translate(-93.828572)"
   id="g14">
</g>
<g
   transform="translate(-93.828572)"
   id="g16">
</g>
<g
   transform="translate(-93.828572)"
   id="g18">
</g>
<g
   transform="translate(-93.828572)"
   id="g20">
</g>
<g
   transform="translate(-93.828572)"
   id="g22">
</g>
<g
   transform="translate(-93.828572)"
   id="g24">
</g>
<g
   transform="translate(-93.828572)"
   id="g26">
</g>
<g
   transform="translate(-93.828572)"
   id="g28">
</g>
<g
   transform="translate(-93.828572)"
   id="g30">
</g>
<g
   transform="translate(-93.828572)"
   id="g32">
</g>
<g
   transform="translate(-93.828572)"
   id="g34">
</g>
</svg>